<?xml version="1.0" encoding="UTF-8"?>
<svg id="Layer_3" data-name="Layer 3" xmlns="http://www.w3.org/2000/svg" viewBox="0 0 2558.04 616.44">
  <defs>
    <style>
      .cls-1 {
        font-family: SpaceGrotesk-Medium, 'Space Grotesk';
        font-size: 438px;
        font-variation-settings: 'wght' 500;
        font-weight: 500;
      }

      .cls-1, .cls-2 {
        fill: #1a2e1a;
      }

      .cls-3 {
        fill: #c8d4c0;
      }

      .cls-4 {
        letter-spacing: -.02em;
      }

      .cls-5 {
        letter-spacing: -.01em;
      }
    </style>
  </defs>
  <text class="cls-1" transform="translate(714.96 458.74)"><tspan class="cls-5" x="0" y="0">CLA</tspan><tspan class="cls-4" x="779.63" y="0">R</tspan><tspan class="cls-5" x="1045.49" y="0">VUE</tspan></text>
  <g>
    <path class="cls-3" d="M452.74,452.74c-10.7,35.11-29.94,68.17-57.7,95.93-90.37,90.37-236.9,90.37-327.27,0-90.36-90.36-90.36-236.88,0-327.26,27.77-27.77,60.84-47,95.94-57.7-24.14,79.17-4.9,168.73,57.7,231.33,62.61,62.61,152.18,81.83,231.33,57.7Z"/>
    <path class="cls-3" d="M548.66,395.04c-27.75,27.75-60.82,47-95.93,57.7,24.14-79.15,4.91-168.73-57.7-231.33-62.61-62.59-152.16-81.83-231.33-57.7,10.7-35.11,29.93-68.17,57.7-95.94,90.37-90.36,236.9-90.36,327.26,0,90.37,90.37,90.37,236.9,0,327.27Z"/>
    <path class="cls-2" d="M395.04,221.41c-62.61-62.59-152.16-81.83-231.33-57.7-3.47,11.39-6.02,22.99-7.69,34.7L2.35,352.08c-3.53,24.68-3.06,49.82,1.38,74.38l153.65-153.65c3.47,19.18,9.36,38,17.69,55.97L21.42,482.43c7.62,16.44,17.29,32.15,28.98,46.79l153.63-153.63c5.37,6.72,11.15,13.23,17.37,19.46,6.23,6.23,12.73,12.01,19.45,17.37l-153.63,153.63c14.64,11.69,30.35,21.36,46.79,28.98l153.64-153.64c17.97,8.33,36.8,14.22,55.97,17.69l-153.64,153.64c24.56,4.45,49.7,4.92,74.38,1.38l153.66-153.66c11.71-1.68,23.32-4.22,34.71-7.7,24.14-79.15,4.91-168.73-57.7-231.33Z"/>
  </g>
</svg>