<?xml version="1.0" encoding="UTF-8"?>
<svg id="Layer_1" data-name="Layer 1" xmlns="http://www.w3.org/2000/svg" viewBox="0 0 1000 1000">
  <defs>
    <style>
      .cls-1 {
        fill: #c8d4c0;
      }

      .cls-2 {
        fill: #1a2e1a;
      }
    </style>
  </defs>
  <path class="cls-1" d="M734.43,734.43c-17.36,56.95-48.57,110.59-93.59,155.61-146.61,146.61-384.3,146.61-530.9,0-146.58-146.58-146.58-384.27,0-530.88,45.05-45.05,98.69-76.24,155.64-93.59-39.16,128.43-7.94,273.71,93.59,375.27,101.56,101.56,246.86,132.75,375.27,93.59Z"/>
  <path class="cls-1" d="M890.04,640.84c-45.02,45.02-98.66,76.24-155.61,93.59,39.16-128.4,7.97-273.71-93.59-375.27-101.56-101.54-246.84-132.75-375.27-93.59,17.36-56.95,48.55-110.59,93.59-155.64,146.61-146.58,384.3-146.58,530.88,0,146.61,146.61,146.61,384.3,0,530.9Z"/>
  <path class="cls-2" d="M640.84,359.17c-101.56-101.54-246.84-132.75-375.27-93.59-5.63,18.47-9.76,37.3-12.48,56.29L3.81,571.15c-5.73,40.04-4.97,80.82,2.25,120.66l249.25-249.25c5.63,31.11,15.18,61.64,28.69,90.8l-249.24,249.24c12.36,26.66,28.05,52.16,47.01,75.9l249.23-249.23c8.71,10.91,18.08,21.46,28.18,31.56,10.1,10.1,20.65,19.47,31.56,28.18l-249.22,249.22c23.74,18.96,49.24,34.64,75.9,47l249.23-249.23c29.16,13.52,59.69,23.07,90.8,28.69l-249.24,249.24c39.84,7.21,80.62,7.98,120.66,2.25l249.27-249.27c19-2.72,37.83-6.85,56.31-12.48,39.16-128.4,7.97-273.71-93.59-375.27Z"/>
</svg>